<svg width="25" height="24" viewBox="0 0 25 24" fill="none" xmlns="http://www.w3.org/2000/svg">
<path fill-rule="evenodd" clip-rule="evenodd" d="M19.436 13.917C20.866 13.039 20.866 10.961 19.436 10.083L9.552 4.01299C8.053 3.09299 6.125 4.17199 6.125 5.93099V18.07C6.125 19.829 8.053 20.908 9.552 19.987L19.436 13.917ZM18.651 11.361C18.7602 11.4281 18.8504 11.5221 18.9129 11.6339C18.9755 11.7458 19.0083 11.8718 19.0083 12C19.0083 12.1282 18.9755 12.2542 18.9129 12.3661C18.8504 12.4779 18.7602 12.5719 18.651 12.639L8.767 18.708C8.65329 18.7777 8.52304 18.8158 8.38969 18.8184C8.25633 18.8211 8.12469 18.7881 8.00834 18.7228C7.89198 18.6576 7.79512 18.5626 7.72774 18.4475C7.66036 18.3324 7.62489 18.2014 7.625 18.068V5.93199C7.62507 5.79869 7.66067 5.66782 7.72812 5.55285C7.79557 5.43788 7.89245 5.34297 8.00877 5.27788C8.1251 5.21279 8.25667 5.17988 8.38994 5.18254C8.52321 5.18519 8.65336 5.22332 8.767 5.29299L18.651 11.361Z" fill="#155dfc"/>
</svg>
